<?xml version="1.0" encoding="iso-8859-1"?>
<!-- Generator: Adobe Illustrator 19.0.0, SVG Export Plug-In . SVG Version: 6.00 Build 0)  -->
<svg version="1.1" id="Layer_1" xmlns="http://www.w3.org/2000/svg" xmlns:xlink="http://www.w3.org/1999/xlink" x="0px" y="0px"
	 viewBox="0 0 511.994 511.994" style="enable-background:new 0 0 511.994 511.994;" xml:space="preserve">
<circle style="fill:#FAD55C;" cx="255.997" cy="255.997" r="255.997"/>
<path style="fill:#E3C04D;" d="M505.331,314.285c-24.23,104.045-111.906,183.709-220.029,196.033l-77.068-77.068l2.24-25.322
	l-14.446-33.389l19.243,19.243l18.012-18.012l21.851,21.851l14.625-1.85l17.171,17.171l1.744-12.14l-32.676-32.67l19.968-207.159
	l-21.516-24.063l5.777-57.162l98.952,98.952l5.282-5.287L505.331,314.285z"/>
<g>
	<path style="fill:#FFFFFF;" d="M178.444,205.866v42.337h23.884c1.894,0,3.36,0.462,4.374,1.382
		c1.025,0.936,1.532,2.095,1.532,3.493c0,1.421-0.507,2.585-1.504,3.465c-1.003,0.88-2.479,1.326-4.401,1.326h-28.442
		c-2.563,0-4.401-0.568-5.527-1.705c-1.125-1.137-1.694-2.981-1.694-5.51v-44.788c0-2.368,0.54-4.156,1.61-5.348
		c1.07-1.192,2.479-1.788,4.223-1.788c1.761,0,3.198,0.585,4.296,1.761C177.893,201.671,178.444,203.471,178.444,205.866z
		 M255.78,236.843c0,3.237-0.501,6.201-1.504,8.925c-1.014,2.719-2.463,5.064-4.373,7.014c-1.894,1.961-4.178,3.449-6.819,4.49
		c-2.641,1.042-5.621,1.571-8.925,1.571c-3.287,0-6.24-0.529-8.853-1.582c-2.613-1.059-4.886-2.574-6.808-4.546
		c-1.911-1.967-3.371-4.296-4.362-6.975c-0.986-2.697-1.488-5.66-1.488-8.909c0-3.276,0.501-6.284,1.499-9.003
		c1.02-2.724,2.451-5.053,4.334-6.986c1.883-1.922,4.156-3.415,6.825-4.457s5.616-1.571,8.853-1.571
		c3.276,0,6.257,0.529,8.925,1.588c2.663,1.053,4.953,2.568,6.864,4.535c1.905,1.95,3.354,4.279,4.346,6.986
		C255.279,230.614,255.78,233.595,255.78,236.843z M244.894,236.843c0-4.413-0.975-7.839-2.908-10.301
		c-1.95-2.451-4.552-3.683-7.828-3.683c-2.123,0-3.978,0.54-5.588,1.638c-1.61,1.098-2.858,2.719-3.727,4.858
		c-0.88,2.145-1.309,4.646-1.309,7.488c0,2.83,0.429,5.309,1.281,7.421c0.869,2.112,2.089,3.738,3.688,4.858
		c1.593,1.125,3.493,1.683,5.655,1.683c3.276,0,5.878-1.231,7.828-3.711C243.919,244.626,244.894,241.205,244.894,236.843z
		 M270.889,221.555l8.758,24.62l9.438-25.684c0.747-2.061,1.465-3.521,2.184-4.39c0.713-0.852,1.794-1.287,3.248-1.287
		c1.376,0,2.546,0.462,3.504,1.398c0.964,0.919,1.449,1.989,1.449,3.209c0,0.474-0.084,1.025-0.256,1.666
		c-0.178,0.635-0.368,1.231-0.596,1.783c-0.228,0.557-0.49,1.192-0.774,1.894l-10.379,25.795c-0.301,0.73-0.663,1.677-1.142,2.819
		c-0.457,1.131-0.975,2.095-1.543,2.908c-0.568,0.808-1.27,1.432-2.095,1.883c-0.841,0.446-1.844,0.674-3.036,0.674
		c-1.527,0-2.747-0.351-3.666-1.053c-0.908-0.696-1.588-1.465-2.017-2.307c-0.435-0.825-1.181-2.474-2.206-4.925l-10.307-25.511
		c-0.24-0.635-0.485-1.27-0.73-1.905c-0.256-0.635-0.457-1.276-0.635-1.939c-0.178-0.663-0.256-1.231-0.256-1.705
		c0-0.741,0.228-1.476,0.674-2.206s1.07-1.326,1.855-1.788c0.802-0.457,1.655-0.691,2.585-0.691c1.788,0,3.036,0.518,3.711,1.549
		C269.318,217.399,270.065,219.137,270.889,221.555z M336.403,239.512h-21.188c0.028,2.463,0.529,4.63,1.493,6.513
		c0.958,1.878,2.245,3.287,3.844,4.24c1.593,0.958,3.371,1.432,5.293,1.432c1.298,0,2.479-0.15,3.549-0.462
		c1.081-0.295,2.106-0.769,3.114-1.421c1.014-0.652,1.933-1.337,2.769-2.084c0.858-0.747,1.956-1.749,3.309-3.02
		c0.552-0.474,1.337-0.719,2.368-0.719c1.109,0,2.017,0.312,2.708,0.925c0.674,0.596,1.031,1.46,1.031,2.568
		c0,0.975-0.396,2.117-1.153,3.426c-0.769,1.298-1.922,2.557-3.482,3.75c-1.538,1.209-3.477,2.212-5.822,2.992
		c-2.34,0.802-5.036,1.192-8.067,1.192c-6.959,0-12.357-1.989-16.218-5.956c-3.861-3.967-5.783-9.343-5.783-16.14
		c0-3.192,0.474-6.173,1.426-8.909c0.947-2.736,2.34-5.075,4.156-7.037c1.827-1.95,4.073-3.454,6.741-4.496
		c2.669-1.047,5.633-1.571,8.881-1.571c4.234,0,7.867,0.891,10.886,2.68c3.031,1.788,5.293,4.089,6.808,6.931
		c1.504,2.83,2.262,5.716,2.262,8.652c0,2.724-0.786,4.496-2.34,5.309C341.428,239.105,339.233,239.512,336.403,239.512z
		 M315.215,233.339h19.633c-0.256-3.694-1.259-6.457-2.992-8.301c-1.733-1.827-4.006-2.747-6.836-2.747
		c-2.713,0-4.919,0.936-6.652,2.786C316.641,226.948,315.583,229.695,315.215,233.339z"/>
	<path style="fill:#FFFFFF;" d="M250.114,130.709V84.907c0-2.385,0.54-4.156,1.621-5.348c1.086-1.192,2.49-1.788,4.212-1.788
		c1.761,0,3.192,0.585,4.29,1.761c1.098,1.181,1.655,2.964,1.655,5.376v45.802c0,2.412-0.557,4.195-1.655,5.387
		s-2.529,1.788-4.29,1.788c-1.694,0-3.087-0.596-4.184-1.8C250.665,134.876,250.114,133.094,250.114,130.709z"/>
	<path style="fill:#FFFFFF;" d="M205.176,427.048v-18.441l-14.201-21.996c-1.242-1.995-2.128-3.538-2.641-4.647
		c-0.513-1.109-0.769-2.073-0.769-2.897c0-1.343,0.529-2.507,1.571-3.493c1.042-0.975,2.329-1.46,3.872-1.46
		c1.61,0,2.825,0.457,3.666,1.365c0.83,0.908,2.073,2.719,3.738,5.443l10.87,17.644l10.998-17.644
		c0.646-1.081,1.203-1.989,1.66-2.736c0.446-0.73,0.936-1.421,1.493-2.073c0.54-0.646,1.137-1.148,1.8-1.488
		c0.663-0.34,1.46-0.513,2.424-0.513c1.476,0,2.708,0.485,3.699,1.449c0.997,0.958,1.488,2.084,1.488,3.343
		c0,1.031-0.245,2.073-0.747,3.098c-0.501,1.031-1.365,2.451-2.585,4.279l-14.552,22.324v18.441c0,2.412-0.557,4.201-1.666,5.393
		c-1.114,1.187-2.535,1.783-4.24,1.783c-1.744,0-3.17-0.579-4.251-1.755C205.716,431.288,205.176,429.489,205.176,427.048z
		 M277.636,412.223c0,3.237-0.496,6.201-1.504,8.925c-1.014,2.719-2.457,5.064-4.368,7.014c-1.894,1.961-4.184,3.449-6.825,4.49
		s-5.621,1.571-8.925,1.571c-3.287,0-6.24-0.529-8.853-1.582c-2.613-1.059-4.886-2.574-6.808-4.546
		c-1.911-1.967-3.371-4.296-4.362-6.975c-0.986-2.697-1.488-5.66-1.488-8.909c0-3.276,0.501-6.284,1.504-9.003
		c1.014-2.719,2.451-5.053,4.335-6.986c1.878-1.922,4.156-3.41,6.819-4.457c2.669-1.042,5.621-1.571,8.853-1.571
		c3.276,0,6.257,0.529,8.925,1.588c2.669,1.059,4.953,2.574,6.864,4.535c1.911,1.95,3.359,4.279,4.346,6.986
		C277.14,405.994,277.636,408.975,277.636,412.223z M266.755,412.223c0-4.413-0.975-7.839-2.914-10.301
		c-1.95-2.451-4.552-3.683-7.828-3.683c-2.123,0-3.978,0.54-5.588,1.638c-1.61,1.098-2.858,2.719-3.722,4.858
		c-0.88,2.145-1.315,4.646-1.315,7.488c0,2.83,0.435,5.309,1.287,7.421c0.864,2.112,2.084,3.738,3.683,4.858
		c1.593,1.125,3.493,1.683,5.655,1.683c3.276,0,5.878-1.231,7.828-3.711C265.78,420.006,266.755,416.585,266.755,412.223z
		 M314.262,428.118v-1.393c-1.298,1.638-2.652,3.02-4.089,4.128c-1.421,1.109-2.981,1.933-4.669,2.479
		c-1.694,0.54-3.616,0.813-5.783,0.813c-2.624,0-4.97-0.546-7.037-1.627c-2.073-1.086-3.688-2.568-4.825-4.479
		c-1.337-2.307-2.017-5.605-2.017-9.928v-21.444c0-2.178,0.49-3.789,1.465-4.858c0.975-1.07,2.273-1.616,3.883-1.616
		c1.627,0,2.953,0.546,3.956,1.627c0.997,1.086,1.499,2.697,1.499,4.847V414c0,2.502,0.217,4.613,0.641,6.318
		c0.418,1.71,1.176,3.048,2.273,4.011c1.098,0.958,2.585,1.449,4.468,1.449c1.827,0,3.543-0.54,5.159-1.627
		c1.61-1.081,2.786-2.507,3.532-4.251c0.607-1.527,0.908-4.886,0.908-10.073v-13.159c0-2.151,0.501-3.761,1.499-4.847
		c1.02-1.081,2.334-1.627,3.945-1.627s2.908,0.546,3.883,1.616c0.986,1.07,1.476,2.68,1.476,4.858v31.372
		c0,2.056-0.474,3.599-1.41,4.641c-0.947,1.031-2.151,1.543-3.638,1.543c-1.476,0-2.713-0.54-3.672-1.61
		C314.747,431.544,314.262,430.04,314.262,428.118z"/>
</g>
<path style="fill:#FF8C8A;" d="M255.997,205.086c0-32.559-26.397-58.956-58.956-58.956s-58.956,26.397-58.956,58.956
	c0,78.545,89.414,113.683,117.912,163.201c28.503-49.518,117.917-84.656,117.917-163.201c0-32.559-26.397-58.956-58.956-58.956
	S255.997,172.527,255.997,205.086z"/>
<g>
	<path style="fill:#FA7876;" d="M248.415,357.1c2.841,3.66,5.393,7.382,7.588,11.187c28.497-49.518,117.912-84.656,117.912-163.201
		c0-32.559-26.397-58.956-58.956-58.956c-2.574,0-5.103,0.167-7.588,0.485c28.977,3.722,51.368,28.486,51.368,58.471
		C358.738,277.592,282.545,313.109,248.415,357.1z"/>
	<path style="fill:#FA7876;" d="M256.07,202.262c-3.688-41.518-36.988-56.131-59.028-56.131c-2.568,0-5.103,0.167-7.588,0.485
		c28.977,3.722,59.028,54.599,59.028,84.59C248.481,220.686,251.239,210.814,256.07,202.262z"/>
</g>
<g>
</g>
<g>
</g>
<g>
</g>
<g>
</g>
<g>
</g>
<g>
</g>
<g>
</g>
<g>
</g>
<g>
</g>
<g>
</g>
<g>
</g>
<g>
</g>
<g>
</g>
<g>
</g>
<g>
</g>
</svg>
